<svg width="1512" height="257" viewBox="0 0 1512 257" fill="none" xmlns="http://www.w3.org/2000/svg">
<path d="M-19 198.189L-0.819376 203.059C17.4676 208.297 54.3604 217.486 90.509 183.486C126.764 149.486 162.806 70.4578 200.018 31.5872C236.167 -7.65104 272.315 -7.65104 309.527 16.8843C345.569 41.0521 381.824 90.6742 417.973 124.674C454.866 158.675 491.333 178.891 527.482 163.913C564.268 149.486 600.842 99.8634 636.991 90.3985C673.565 80.566 710.351 109.972 746.5 119.804C782.968 129.269 819.86 120.08 856.009 105.101C892.264 90.6742 928.306 70.4578 965.518 90.3985C1001.67 109.972 1037.82 168.783 1075.03 193.318C1111.07 217.486 1147.32 208.297 1183.47 178.616C1220.37 149.486 1256.83 99.8634 1292.98 105.101C1329.77 109.972 1366.34 168.783 1402.49 178.616C1439.06 188.08 1475.85 149.486 1493.93 129.545L1512 109.972V257H1493.82C1475.53 257 1438.64 257 1402.49 257C1366.24 257 1330.19 257 1292.98 257C1256.83 257 1220.68 257 1183.47 257C1147.43 257 1111.18 257 1075.03 257C1038.13 257 1001.67 257 965.518 257C928.732 257 892.158 257 856.009 257C819.435 257 782.649 257 746.5 257C710.032 257 673.14 257 636.991 257C600.736 257 564.694 257 527.482 257C491.333 257 455.185 257 417.973 257C381.931 257 345.676 257 309.527 257C272.634 257 236.167 257 200.018 257C163.232 257 126.658 257 90.509 257C53.9351 257 17.1486 257 -0.925695 257H-19V198.189Z" fill="#21CDD9" fill-opacity="0.38"/>
</svg>
