<svg width="1512" height="172" viewBox="0 0 1512 172" fill="none" xmlns="http://www.w3.org/2000/svg">
<path d="M0 113.189L17.955 118.059C36.015 123.297 72.45 132.486 108.15 98.486C143.955 64.4857 129.25 58.9716 166 20.101C201.7 -19.1372 272.75 10.2689 309.5 34.8043C345.095 58.9721 361 147.819 431.55 108.318C475 83.9913 504 49.7828 539.7 34.8043C576.03 20.3772 603.3 97.9646 639 88.4997C675.12 78.6672 746.8 35.1675 782.5 45C818.515 54.465 828.45 113.465 864.15 98.4863C899.955 84.0592 963.25 108.059 1000 128C1035.7 147.573 1043.7 83.7831 1080.45 108.318C1116.05 132.486 1136.8 86.6814 1172.5 57C1208.94 27.87 1260 88.3778 1295.7 93.6157C1385 147 1368.15 83.7831 1403.85 93.6157C1439.97 103.081 1476.3 64.4857 1494.15 44.545L1512 24.9718V172H1494.05C1475.98 172 1439.55 172 1403.85 172C1368.05 172 1332.45 172 1295.7 172C1260 172 1224.3 172 1187.55 172C1151.96 172 1116.15 172 1080.45 172C1044.02 172 1008 172 972.3 172C935.97 172 899.85 172 864.15 172C828.03 172 791.7 172 756 172C719.985 172 683.55 172 647.85 172C612.045 172 576.45 172 539.7 172C504 172 468.3 172 431.55 172C395.955 172 360.15 172 324.45 172C288.015 172 252 172 216.3 172C179.97 172 143.85 172 108.15 172C72.03 172 35.7 172 17.85 172H0V113.189Z" fill="#21CDD9" fill-opacity="0.38"/>
</svg>
