<svg width="81" height="80" viewBox="0 0 81 80" fill="none" xmlns="http://www.w3.org/2000/svg">
<mask id="mask0_405_381" style="mask-type:alpha" maskUnits="userSpaceOnUse" x="0" y="0" width="81" height="80">
<rect x="0.5" width="80" height="80" rx="20" fill="#D9D9D9"/>
</mask>
<g mask="url(#mask0_405_381)">
<rect x="-3.5957" y="-3.4668" width="87.552" height="101.728" rx="20" fill="#21CDD9"/>
<path d="M33.1512 41.4464C34.0083 42.5862 36.3922 43.0651 37.9226 42.5862C39.6332 42.0495 40.5515 40.7063 40.5515 40.7063C40.5515 40.7063 41.4086 42.1144 43.1803 42.5862C44.727 42.9931 47.0964 42.5862 47.9517 41.4464C48.807 40.3049 48.5009 39.5 48.5009 39.5C48.5009 39.5 48.013 40.4398 47.0964 40.3715C46.1781 40.3049 45.2005 38.1603 43.3657 37.4906C41.531 36.8189 40.5515 37.8921 40.5515 37.8921C40.5515 37.8921 39.5738 36.8189 37.7391 37.4906C35.9043 38.1605 34.9248 40.3049 34.0083 40.3715C33.09 40.4399 32.6021 39.5 32.6021 39.5C32.6021 39.5 32.296 40.3047 33.1512 41.4464Z" fill="white"/>
<path d="M40.5517 23.7739H41.4376L40.5517 22.6396L39.6641 23.7739H40.5517Z" fill="white"/>
<path d="M42.5127 22.728C43.1302 22.728 43.6326 22.2257 43.6326 21.608V21.3542C43.6326 20.7384 43.1303 20.2378 42.5127 20.2378C41.895 20.2378 41.3945 20.7384 41.3945 21.3542V21.608C41.3945 22.2257 41.8951 22.728 42.5127 22.728Z" fill="white"/>
<path d="M23.3123 30.8017H24.7168C23.9245 34.9645 22.3113 41.3907 19.5853 43.8898C22.0214 44.9323 24.6304 43.5405 24.6304 43.5405C24.6304 43.5405 24.4575 48.0635 23.7607 48.935C24.6141 48.935 27.6787 46.8896 29.4432 45.6616C31.4436 48.1373 35.0357 50.5231 40.5508 50.5231C46.0659 50.5231 49.6579 48.1374 51.6584 45.6616C53.423 46.8896 56.4874 48.935 57.3391 48.935C56.6441 48.0635 56.4713 43.5405 56.4713 43.5405C56.4713 43.5405 59.0803 44.9323 61.5163 43.8898C58.7904 41.3906 57.1771 34.9645 56.3848 30.8017H57.7893C60.5514 30.8017 62.793 28.56 62.793 25.7961C62.793 23.0322 60.5514 20.7906 57.7893 20.7906C55.0255 20.7906 53.6192 19.6833 51.6711 18.0141C46.9444 14.9551 46.6671 10 40.5507 10C34.4324 10 34.1552 14.9551 29.4287 18.0142C27.4823 19.6833 26.0761 20.7907 23.3123 20.7907C20.5485 20.7907 18.3086 23.0323 18.3086 25.7962C18.3086 28.5601 20.5485 30.8017 23.3123 30.8017ZM40.5507 16.5792C43.59 16.5792 45.1529 19.0208 45.1529 21.5595C45.1529 22.5138 44.944 23.297 44.4778 23.7562C43.8584 24.3648 43.1309 24.3018 43.0589 24.3685C43.0589 24.3685 43.0589 25.0077 43.0589 25.4344V25.6018C43.0589 25.7423 42.9437 25.8593 42.8015 25.8593H42.1839C42.0417 25.8593 41.9265 25.7422 41.9265 25.6018V24.8186C41.867 24.7825 41.8131 24.8222 41.7626 24.7988C41.7626 24.8006 41.7645 24.8006 41.7645 24.8042V25.6018C41.7645 25.7423 41.6492 25.8593 41.507 25.8593H40.8895C40.7473 25.8593 40.632 25.7422 40.632 25.6018V24.8042C40.632 24.7772 40.6375 24.7537 40.6446 24.7303H40.5507H40.457C40.4643 24.7537 40.4678 24.7771 40.4678 24.8042V25.6018C40.4678 25.7423 40.3544 25.8593 40.2104 25.8593H39.5946C39.4524 25.8593 39.3372 25.7422 39.3372 25.6018V24.8042C39.3372 24.8006 39.3372 24.8006 39.3372 24.7988C39.2885 24.8222 39.2328 24.7825 39.1733 24.8186V25.6018C39.1733 25.7423 39.0581 25.8593 38.9176 25.8593H38.3C38.1578 25.8593 38.0426 25.7422 38.0426 25.6018V25.4344C38.0426 25.0077 38.0426 24.3685 38.0426 24.3685C37.9706 24.3019 37.2431 24.3649 36.6237 23.7562C36.1555 23.2971 35.9486 22.5139 35.9486 21.5595C35.9486 19.0207 37.5114 16.5792 40.5507 16.5792ZM50.0972 30.8017V41.2358C50.0197 41.9921 47.8284 46.9975 40.5507 46.9975C33.2729 46.9975 31.0816 41.992 31.0042 41.279V30.8017H50.0972Z" fill="white"/>
<path d="M38.5887 22.728C39.2063 22.728 39.7068 22.2257 39.7068 21.608V21.3542C39.7068 20.7384 39.2063 20.2378 38.5887 20.2378C37.9693 20.2378 37.4688 20.7384 37.4688 21.3542V21.608C37.4688 22.2257 37.9693 22.728 38.5887 22.728Z" fill="white"/>
<path d="M66.2212 61.5098C65.3389 59.0845 63.7977 57.7629 62.0349 57.3218C60.2722 56.8824 51.0175 54.2374 51.0175 54.2374V50.7119C45.7292 54.4589 40.8822 53.3569 40.8822 53.3569C40.8822 53.3569 35.3725 54.4589 30.0844 50.7119V54.2374C30.0844 54.2374 20.8296 56.8824 19.067 57.3218C17.3058 57.7629 15.7629 59.0845 14.8805 61.5098C14 63.9316 14 67.6785 14 67.6785C14 67.6785 26.9999 69.0001 40.8821 69.0001C54.7625 69.0001 67.1016 67.6785 67.1016 67.6785C67.1016 67.6785 67.1016 63.9316 66.2212 61.5098ZM40.5508 66.357C39.7712 66.357 39.1411 65.7232 39.1411 64.9453C39.1411 64.1675 39.7713 63.5356 40.5508 63.5356C41.3287 63.5356 41.9606 64.1675 41.9606 64.9453C41.9606 65.7232 41.3287 66.357 40.5508 66.357ZM40.5508 60.7158C39.7712 60.7158 39.1411 60.0838 39.1411 59.306C39.1411 58.5282 39.7713 57.8944 40.5508 57.8944C41.3287 57.8944 41.9606 58.5282 41.9606 59.306C41.9606 60.0838 41.3287 60.7158 40.5508 60.7158Z" fill="white"/>
</g>
</svg>
