<svg width="54" height="59" viewBox="0 0 54 59" fill="none" xmlns="http://www.w3.org/2000/svg">
<path d="M19.1512 31.4464C20.0083 32.5862 22.3922 33.0651 23.9226 32.5862C25.6332 32.0495 26.5515 30.7063 26.5515 30.7063C26.5515 30.7063 27.4086 32.1144 29.1803 32.5862C30.727 32.9931 33.0964 32.5862 33.9517 31.4464C34.807 30.3049 34.5009 29.5 34.5009 29.5C34.5009 29.5 34.013 30.4398 33.0964 30.3715C32.1781 30.3049 31.2005 28.1603 29.3657 27.4906C27.531 26.8189 26.5515 27.8921 26.5515 27.8921C26.5515 27.8921 25.5738 26.8189 23.7391 27.4906C21.9043 28.1605 20.9248 30.3049 20.0083 30.3715C19.09 30.4399 18.6021 29.5 18.6021 29.5C18.6021 29.5 18.296 30.3047 19.1512 31.4464Z" fill="black" fill-opacity="0.8"/>
<path d="M26.5517 13.7739H27.4376L26.5517 12.6396L25.6641 13.7739H26.5517Z" fill="black" fill-opacity="0.8"/>
<path d="M28.5127 12.728C29.1302 12.728 29.6326 12.2257 29.6326 11.608V11.3542C29.6326 10.7384 29.1303 10.2378 28.5127 10.2378C27.895 10.2378 27.3945 10.7384 27.3945 11.3542V11.608C27.3945 12.2257 27.8951 12.728 28.5127 12.728Z" fill="black" fill-opacity="0.8"/>
<path d="M9.31231 20.8017H10.7168C9.92455 24.9645 8.31126 31.3907 5.58528 33.8898C8.02145 34.9323 10.6304 33.5405 10.6304 33.5405C10.6304 33.5405 10.4575 38.0635 9.76068 38.935C10.6141 38.935 13.6787 36.8896 15.4432 35.6616C17.4436 38.1373 21.0357 40.5231 26.5508 40.5231C32.0659 40.5231 35.6579 38.1374 37.6584 35.6616C39.423 36.8896 42.4874 38.935 43.3391 38.935C42.6441 38.0635 42.4713 33.5405 42.4713 33.5405C42.4713 33.5405 45.0803 34.9323 47.5163 33.8898C44.7904 31.3906 43.1771 24.9645 42.3848 20.8017H43.7893C46.5514 20.8017 48.793 18.56 48.793 15.7961C48.793 13.0322 46.5514 10.7906 43.7893 10.7906C41.0255 10.7906 39.6192 9.68327 37.6711 8.0141C32.9444 4.95508 32.6671 0 26.5507 0C20.4324 0 20.1552 4.95508 15.4287 8.01421C13.4823 9.68327 12.0761 10.7907 9.31231 10.7907C6.54852 10.7907 4.30859 13.0323 4.30859 15.7962C4.30859 18.5601 6.54852 20.8017 9.31231 20.8017ZM26.5507 6.5792C29.59 6.5792 31.1529 9.02079 31.1529 11.5595C31.1529 12.5138 30.944 13.297 30.4778 13.7562C29.8584 14.3648 29.1309 14.3018 29.0589 14.3685C29.0589 14.3685 29.0589 15.0077 29.0589 15.4344V15.6018C29.0589 15.7423 28.9437 15.8593 28.8015 15.8593H28.1839C28.0417 15.8593 27.9265 15.7422 27.9265 15.6018V14.8186C27.867 14.7825 27.8131 14.8222 27.7626 14.7988C27.7626 14.8006 27.7645 14.8006 27.7645 14.8042V15.6018C27.7645 15.7423 27.6492 15.8593 27.507 15.8593H26.8895C26.7473 15.8593 26.632 15.7422 26.632 15.6018V14.8042C26.632 14.7772 26.6375 14.7537 26.6446 14.7303H26.5507H26.457C26.4643 14.7537 26.4678 14.7771 26.4678 14.8042V15.6018C26.4678 15.7423 26.3544 15.8593 26.2104 15.8593H25.5946C25.4524 15.8593 25.3372 15.7422 25.3372 15.6018V14.8042C25.3372 14.8006 25.3372 14.8006 25.3372 14.7988C25.2885 14.8222 25.2328 14.7825 25.1733 14.8186V15.6018C25.1733 15.7423 25.0581 15.8593 24.9176 15.8593H24.3C24.1578 15.8593 24.0426 15.7422 24.0426 15.6018V15.4344C24.0426 15.0077 24.0426 14.3685 24.0426 14.3685C23.9706 14.3019 23.2431 14.3649 22.6237 13.7562C22.1555 13.2971 21.9486 12.5139 21.9486 11.5595C21.9486 9.02067 23.5114 6.5792 26.5507 6.5792ZM36.0972 20.8017V31.2358C36.0197 31.9921 33.8284 36.9975 26.5507 36.9975C19.2729 36.9975 17.0816 31.992 17.0042 31.279V20.8017H36.0972Z" fill="black" fill-opacity="0.8"/>
<path d="M24.5887 12.728C25.2063 12.728 25.7068 12.2257 25.7068 11.608V11.3542C25.7068 10.7384 25.2063 10.2378 24.5887 10.2378C23.9693 10.2378 23.4688 10.7384 23.4688 11.3542V11.608C23.4688 12.2257 23.9693 12.728 24.5887 12.728Z" fill="black" fill-opacity="0.8"/>
<path d="M52.2212 51.5098C51.3389 49.0845 49.7977 47.7629 48.0349 47.3218C46.2722 46.8824 37.0175 44.2374 37.0175 44.2374V40.7119C31.7292 44.4589 26.8822 43.3569 26.8822 43.3569C26.8822 43.3569 21.3725 44.4589 16.0844 40.7119V44.2374C16.0844 44.2374 6.8296 46.8824 5.06698 47.3218C3.30585 47.7629 1.76286 49.0845 0.880507 51.5098C1.09896e-07 53.9316 0 57.6785 0 57.6785C0 57.6785 12.9999 59.0001 26.8821 59.0001C40.7625 59.0001 53.1016 57.6785 53.1016 57.6785C53.1016 57.6785 53.1016 53.9316 52.2212 51.5098ZM26.5508 56.357C25.7712 56.357 25.1411 55.7232 25.1411 54.9453C25.1411 54.1675 25.7713 53.5356 26.5508 53.5356C27.3287 53.5356 27.9606 54.1675 27.9606 54.9453C27.9606 55.7232 27.3287 56.357 26.5508 56.357ZM26.5508 50.7158C25.7712 50.7158 25.1411 50.0838 25.1411 49.306C25.1411 48.5282 25.7713 47.8944 26.5508 47.8944C27.3287 47.8944 27.9606 48.5282 27.9606 49.306C27.9606 50.0838 27.3287 50.7158 26.5508 50.7158Z" fill="black" fill-opacity="0.8"/>
</svg>
