<svg width="32" height="50" viewBox="0 0 32 50" fill="none" xmlns="http://www.w3.org/2000/svg">
<path d="M5.60467 23.8568L13.8814 43.5505C15.0406 46.3087 18.8474 47.3492 22.3672 45.8699C26.1829 44.2662 28.448 40.7582 27.8886 37.6411C27.9202 37.5053 27.9131 37.3668 27.8592 37.2384L19.2885 16.8454C19.1219 16.449 18.577 16.3 18.0711 16.5126C17.5653 16.7252 17.2904 17.2187 17.457 17.6151C18.1267 19.2086 17.6874 21.0499 16.4722 22.5436L15.0217 19.0923C14.2199 17.1846 11.587 16.465 9.15256 17.4881C6.23558 18.7142 4.64409 21.5712 5.60467 23.8568ZM25.7338 37.3089C26.8086 39.8664 25.0279 43.0631 21.7641 44.4348C19.254 45.4897 16.5396 44.7477 15.713 42.7809L8.90816 26.5894C9.46123 26.7458 10.0532 26.8325 10.6672 26.846C10.7161 26.8507 10.7665 26.8512 10.8176 26.849C11.8777 26.8514 12.9979 26.6354 14.0905 26.1762C16.461 25.18 18.2342 23.4481 19.1032 21.5321L25.7338 37.3089ZM13.4873 24.741C12.8803 24.9961 12.2616 25.1452 11.6602 25.1983L11.1115 23.8926C11.5755 23.8696 12.0578 23.7638 12.53 23.5653C13.2172 23.2765 13.7989 22.8584 14.2441 22.3703L14.9147 23.9658C14.4793 24.263 14.0018 24.5248 13.4873 24.741ZM13.1901 19.8622C13.5321 20.6761 12.9654 21.6935 11.9268 22.13C11.1967 22.4368 10.4073 22.2211 10.1668 21.6491C10.0078 21.2705 10.2713 20.7975 10.7543 20.5945C11.2602 20.3819 11.5351 19.8884 11.3685 19.492C11.2019 19.0956 10.657 18.9467 10.1511 19.1593C8.65821 19.7867 7.84365 21.2489 8.33532 22.4188C8.34312 22.4374 8.35206 22.4552 8.36047 22.4735C8.36128 22.4754 8.36168 22.4774 8.36248 22.4793L9.37832 24.8964C8.49372 24.5487 7.79083 23.9312 7.43612 23.0872C6.80809 21.5928 7.84858 19.7251 9.75557 18.9236C11.1802 18.3248 12.7209 18.7459 13.1901 19.8622ZM4.48433 1.40565C2.36866 2.29481 1.1522 4.28975 1.61157 5.99469C1.6181 6.05364 1.63182 6.11193 1.65542 6.16809L4.57216 13.1082C1.27041 16.0031 -0.0171622 20.0443 1.37124 23.3479L10.3679 44.7545C12.2714 49.2842 18.5229 50.9928 24.3035 48.5634C30.084 46.134 33.2379 40.4725 31.3342 35.9429L22.3376 14.5364C20.9493 11.2329 17.1612 9.3248 12.7828 9.65758L9.94128 2.89641C9.93602 2.88387 9.92924 2.87219 9.9232 2.86021C9.15943 1.11467 6.73137 0.461277 4.48433 1.40565ZM9.4271 6.80064C9.42947 6.80697 9.43102 6.8134 9.43368 6.81972C9.73531 7.53742 8.9495 8.58121 7.71761 9.09894C6.48573 9.61667 5.19019 9.44761 4.88856 8.72991C4.88594 8.72369 4.88239 8.71798 4.87953 8.71187L4.68672 8.25307C5.48132 8.32036 6.34715 8.19099 7.18758 7.83778C8.02801 7.48457 8.72631 6.95658 9.23428 6.34185L9.4271 6.80064ZM20.5061 15.306L29.5027 36.7126C31.0738 40.4509 28.4708 45.1233 23.7003 47.1282C18.9298 49.1331 13.7705 47.723 12.1994 43.9847L3.20281 22.5782C2.14567 20.0629 2.96741 17.0289 5.24036 14.6981L5.26051 14.746C6.006 16.5199 8.45418 17.189 10.7178 16.2377C11.2237 16.0251 11.4986 15.5316 11.332 15.1352C11.1654 14.7388 10.6205 14.5899 10.1146 14.8025C8.86078 15.3294 7.50494 14.9588 7.09204 13.9763L5.85218 11.0262C6.62644 11.0451 7.48036 10.8874 8.32079 10.5341C9.16122 10.1809 9.87142 9.68128 10.3997 9.11496L11.6396 12.0651C11.8062 12.4615 12.3511 12.6104 12.857 12.3978C13.3628 12.1852 13.6377 11.6917 13.4711 11.2953L13.451 11.2474C16.7065 11.2546 19.4489 12.7907 20.5061 15.306ZM8.10849 3.66656C8.52119 4.64853 7.83737 5.87586 6.58436 6.40247C5.33135 6.92907 3.97602 6.55863 3.56337 5.57676C3.15071 4.59489 3.83449 3.36746 5.0875 2.84086C6.34051 2.31425 7.69579 2.68459 8.10849 3.66656ZM5.32657 3.40968C6.18079 3.05067 7.10127 3.30226 7.3826 3.97164C7.66392 4.64102 7.19952 5.47464 6.3453 5.83365C5.49107 6.19266 4.57059 5.94107 4.28926 5.27168C4.00794 4.6023 4.47234 3.76869 5.32657 3.40968Z" fill="black" fill-opacity="0.9"/>
</svg>
