<svg width="209" height="252" viewBox="0 0 209 252" fill="none" xmlns="http://www.w3.org/2000/svg">
<path d="M112.401 35.6084H95.9668V243.782H112.401V35.6084Z" fill="#A9A8AE"/>
<path d="M112.399 35.6084H104.193V243.782H112.399V35.6084Z" fill="#808081"/>
<path d="M148.114 93.6396H60.248V110.074H148.114V93.6396Z" fill="#808081"/>
<path d="M148.109 93.6396H104.195V110.074H148.109V93.6396Z" fill="#666666"/>
<path d="M104.219 252C77.0642 252 54.5245 243.421 37.1803 226.5C24.2107 213.847 14.4142 196.786 8.06348 175.79L23.7943 171.031C29.3324 189.34 37.6976 204.044 48.6571 214.736C62.8237 228.557 81.5027 235.565 104.173 235.565C126.891 235.565 145.571 228.557 159.742 214.735C170.707 204.041 179.073 189.337 184.61 171.032L200.341 175.79C193.991 196.784 184.193 213.846 171.218 226.501C153.869 243.421 131.327 252 104.219 252Z" fill="#808081"/>
<path d="M104.218 252C104.195 252 104.195 235.565 104.172 235.565C126.89 235.565 145.57 228.557 159.741 214.736C170.706 204.041 179.072 189.338 184.609 171.032L200.34 175.79C193.99 196.784 184.192 213.846 171.217 226.501C153.868 243.421 131.326 252 104.218 252Z" fill="#666666"/>
<path d="M16.0945 213.169L0 209.844L10.2498 160.222L51.3681 185.744L42.7017 199.708L21.5829 186.599L16.0945 213.169Z" fill="#808081"/>
<path d="M192.274 213.169L186.785 186.599L165.666 199.708L157 185.744L198.118 160.222L208.368 209.844L192.274 213.169Z" fill="#666666"/>
<path d="M104.183 56.9741C88.4725 56.9741 75.6914 44.193 75.6914 28.4824C75.6909 12.7772 88.472 0 104.183 0C119.882 0 132.655 12.7772 132.655 28.4819C132.654 44.1925 119.882 56.9741 104.183 56.9741Z" fill="#EBEBEC"/>
<path d="M104.184 56.9741C104.184 35.6088 104.184 15.3395 104.184 0C119.882 0 132.655 12.7772 132.655 28.4819C132.655 44.1925 119.882 56.9741 104.184 56.9741Z" fill="#CACACD"/>
</svg>
