<svg width="262" height="262" viewBox="0 0 262 262" fill="none" xmlns="http://www.w3.org/2000/svg">
<path d="M139.544 0H122.457V131H139.544V0Z" fill="#BA7400"/>
<path d="M139.544 0H131V131H139.544V0Z" fill="#804D00"/>
<path d="M32.3296 44.4077L124.959 137.037L137.041 124.955L44.4116 32.3257L32.3296 44.4077Z" fill="#BA7400"/>
<path d="M131 122.456H0V139.543H131V122.456Z" fill="#BA7400"/>
<path d="M32.3242 217.589L44.4062 229.671L137.036 137.042L124.954 124.959L32.3242 217.589Z" fill="#BA7400"/>
<path d="M139.544 131H122.457V262H139.544V131Z" fill="#BA7400"/>
<path d="M124.964 137.045L217.594 229.675L229.676 217.593L137.046 124.963L124.964 137.045Z" fill="#804D00"/>
<path d="M262.002 122.457H131.002V139.543H262.002V122.457Z" fill="#804D00"/>
<path d="M124.965 124.958L137.047 137.04L229.676 44.4102L217.594 32.3281L124.965 124.958Z" fill="#804D00"/>
<path d="M131.002 22.7822C71.2341 22.7822 22.7832 71.2331 22.7832 131C22.7832 190.768 71.2346 239.218 131.002 239.218C190.769 239.218 239.219 190.768 239.219 131C239.219 71.2326 190.769 22.7822 131.002 22.7822ZM131.002 207.819C88.5757 207.819 54.1832 173.426 54.1832 131C54.1832 88.5742 88.5757 54.1822 131.002 54.1822C173.427 54.1822 207.82 88.5747 207.82 131C207.82 173.427 173.428 207.819 131.002 207.819Z" fill="#804D00"/>
<path d="M131.002 170.312C109.326 170.312 91.6914 152.677 91.6914 131.001C91.6914 109.325 109.326 91.6909 131.002 91.6909C152.678 91.6909 170.313 109.325 170.313 131.001C170.313 152.676 152.678 170.312 131.002 170.312Z" fill="#804D00"/>
<path d="M131 170.311C131 138.974 131 111.065 131 91.6899C152.676 91.6899 170.311 109.324 170.311 131C170.311 152.676 152.676 170.311 131 170.311Z" fill="#4C3011"/>
<path d="M131 22.7822V54.1822C173.425 54.1822 207.818 88.5747 207.818 131C207.818 173.427 173.425 207.819 131 207.819V239.218C190.768 239.218 239.218 190.768 239.218 131C239.218 71.2326 190.768 22.7822 131 22.7822Z" fill="#4C3011"/>
<path d="M130.999 108.777C118.745 108.777 108.775 118.746 108.775 131C108.775 143.254 118.745 153.224 130.999 153.224C143.253 153.224 153.223 143.254 153.223 131C153.223 118.746 143.253 108.777 130.999 108.777Z" fill="#FD9702"/>
<path d="M131 108.777C131 122.456 131 137.265 131 153.224C143.254 153.224 153.224 143.254 153.224 131C153.224 118.746 143.254 108.777 131 108.777Z" fill="#BA7400"/>
<path d="M131.001 139.79C135.856 139.79 139.791 135.855 139.791 131C139.791 126.146 135.856 122.21 131.001 122.21C126.146 122.21 122.211 126.146 122.211 131C122.211 135.855 126.146 139.79 131.001 139.79Z" fill="#4C3011"/>
<path d="M131 122.211C135.855 122.211 139.79 126.147 139.79 131.001C139.79 135.855 135.855 139.791 131 139.791C131 131 131 131 131 122.211Z" fill="#301C07"/>
</svg>
